<svg id="visual" viewBox="0 0 960 540" width="960" height="540" xmlns="http://www.w3.org/2000/svg" xmlns:xlink="http://www.w3.org/1999/xlink" version="1.1"><path d="M0 44L87 98L175 125L262 71L349 136L436 50L524 147L611 55L698 55L785 55L873 77L960 50L960 0L873 0L785 0L698 0L611 0L524 0L436 0L349 0L262 0L175 0L87 0L0 0Z" fill="#000000"></path><path d="M0 114L87 185L175 206L262 131L349 233L436 141L524 201L611 136L698 114L785 158L873 147L960 147L960 48L873 75L785 53L698 53L611 53L524 145L436 48L349 134L262 69L175 123L87 96L0 42Z" fill="#002c00"></path><path d="M0 282L87 282L175 314L262 287L349 390L436 244L524 384L611 341L698 330L785 314L873 363L960 336L960 145L873 145L785 156L698 112L611 134L524 199L436 139L349 231L262 129L175 204L87 183L0 112Z" fill="#004b00"></path><path d="M0 374L87 314L175 395L262 320L349 438L436 336L524 455L611 433L698 374L785 406L873 438L960 411L960 334L873 361L785 312L698 328L611 339L524 382L436 242L349 388L262 285L175 312L87 280L0 280Z" fill="#116b10"></path><path d="M0 541L87 541L175 541L262 541L349 541L436 541L524 541L611 541L698 541L785 541L873 541L960 541L960 409L873 436L785 404L698 372L611 431L524 453L436 334L349 436L262 318L175 393L87 312L0 372Z" fill="#228c22"></path></svg>