<svg width="70" height="83" viewBox="0 0 70 83" fill="none" xmlns="http://www.w3.org/2000/svg">
<mask id="path-1-outside-1_154_2706" maskUnits="userSpaceOnUse" x="0" y="0" width="70" height="83" fill="black">
<rect fill="white" width="70" height="83"/>
<path d="M8.41 63.3V50.88L36.85 10.2H54.04V49.98H61.42V63.3H54.04V75H38.65V63.3H8.41ZM39.73 27.12L24.61 49.98H39.73V27.12Z"/>
</mask>
<path d="M8.41 63.3V50.88L36.85 10.2H54.04V49.98H61.42V63.3H54.04V75H38.65V63.3H8.41ZM39.73 27.12L24.61 49.98H39.73V27.12Z" fill="#41E3EB"/>
<path d="M8.41 63.3H0.41V71.3H8.41V63.3ZM8.41 50.88L1.85342 46.2962L0.41 48.3608V50.88H8.41ZM36.85 10.2V2.2H32.6817L30.2934 5.61619L36.85 10.2ZM54.04 10.2H62.04V2.2H54.04V10.2ZM54.04 49.98H46.04V57.98H54.04V49.98ZM61.42 49.98H69.42V41.98H61.42V49.98ZM61.42 63.3V71.3H69.42V63.3H61.42ZM54.04 63.3V55.3H46.04V63.3H54.04ZM54.04 75V83H62.04V75H54.04ZM38.65 75H30.65V83H38.65V75ZM38.65 63.3H46.65V55.3H38.65V63.3ZM39.73 27.12H47.73V0.523218L33.0575 22.7067L39.73 27.12ZM24.61 49.98L17.9375 45.5667L9.72709 57.98H24.61V49.98ZM39.73 49.98V57.98H47.73V49.98H39.73ZM16.41 63.3V50.88H0.41V63.3H16.41ZM14.9666 55.4638L43.4066 14.7838L30.2934 5.61619L1.85342 46.2962L14.9666 55.4638ZM36.85 18.2H54.04V2.2H36.85V18.2ZM46.04 10.2V49.98H62.04V10.2H46.04ZM54.04 57.98H61.42V41.98H54.04V57.98ZM53.42 49.98V63.3H69.42V49.98H53.42ZM61.42 55.3H54.04V71.3H61.42V55.3ZM46.04 63.3V75H62.04V63.3H46.04ZM54.04 67H38.65V83H54.04V67ZM46.65 75V63.3H30.65V75H46.65ZM38.65 55.3H8.41V71.3H38.65V55.3ZM33.0575 22.7067L17.9375 45.5667L31.2825 54.3933L46.4025 31.5333L33.0575 22.7067ZM24.61 57.98H39.73V41.98H24.61V57.98ZM47.73 49.98V27.12H31.73V49.98H47.73Z" fill="black" mask="url(#path-1-outside-1_154_2706)"/>
</svg>
