<svg id="visual" viewBox="0 0 960 540" width="960" height="540" xmlns="http://www.w3.org/2000/svg" xmlns:xlink="http://www.w3.org/1999/xlink" version="1.1"><path d="M0 131L14.5 129.2C29 127.3 58 123.7 87.2 113.7C116.3 103.7 145.7 87.3 174.8 85.5C204 83.7 233 96.3 262 104.5C291 112.7 320 116.3 349 122.7C378 129 407 138 436.2 131.7C465.3 125.3 494.7 103.7 523.8 90.2C553 76.7 582 71.3 611 66.8C640 62.3 669 58.7 698 65.8C727 73 756 91 785.2 93.7C814.3 96.3 843.7 83.7 872.8 77.3C902 71 931 71 945.5 71L960 71L960 0L945.5 0C931 0 902 0 872.8 0C843.7 0 814.3 0 785.2 0C756 0 727 0 698 0C669 0 640 0 611 0C582 0 553 0 523.8 0C494.7 0 465.3 0 436.2 0C407 0 378 0 349 0C320 0 291 0 262 0C233 0 204 0 174.8 0C145.7 0 116.3 0 87.2 0C58 0 29 0 14.5 0L0 0Z" fill="#d2f6d2"></path><path d="M0 185L14.5 193C29 201 58 217 87.2 212.5C116.3 208 145.7 183 174.8 168.7C204 154.3 233 150.7 262 157.8C291 165 320 183 349 198.3C378 213.7 407 226.3 436.2 215.5C465.3 204.7 494.7 170.3 523.8 156.8C553 143.3 582 150.7 611 143.5C640 136.3 669 114.7 698 114.7C727 114.7 756 136.3 785.2 148C814.3 159.7 843.7 161.3 872.8 159.5C902 157.7 931 152.3 945.5 149.7L960 147L960 69L945.5 69C931 69 902 69 872.8 75.3C843.7 81.7 814.3 94.3 785.2 91.7C756 89 727 71 698 63.8C669 56.7 640 60.3 611 64.8C582 69.3 553 74.7 523.8 88.2C494.7 101.7 465.3 123.3 436.2 129.7C407 136 378 127 349 120.7C320 114.3 291 110.7 262 102.5C233 94.3 204 81.7 174.8 83.5C145.7 85.3 116.3 101.7 87.2 111.7C58 121.7 29 125.3 14.5 127.2L0 129Z" fill="#a8dca6"></path><path d="M0 390L14.5 377.3C29 364.7 58 339.3 87.2 322.2C116.3 305 145.7 296 174.8 312.2C204 328.3 233 369.7 262 380.5C291 391.3 320 371.7 349 374.5C378 377.3 407 402.7 436.2 393.7C465.3 384.7 494.7 341.3 523.8 311.5C553 281.7 582 265.3 611 248.2C640 231 669 213 698 219.3C727 225.7 756 256.3 785.2 281.7C814.3 307 843.7 327 872.8 333.3C902 339.7 931 332.3 945.5 328.7L960 325L960 145L945.5 147.7C931 150.3 902 155.7 872.8 157.5C843.7 159.3 814.3 157.7 785.2 146C756 134.3 727 112.7 698 112.7C669 112.7 640 134.3 611 141.5C582 148.7 553 141.3 523.8 154.8C494.7 168.3 465.3 202.7 436.2 213.5C407 224.3 378 211.7 349 196.3C320 181 291 163 262 155.8C233 148.7 204 152.3 174.8 166.7C145.7 181 116.3 206 87.2 210.5C58 215 29 199 14.5 191L0 183Z" fill="#7fc17b"></path><path d="M0 476L14.5 476C29 476 58 476 87.2 473.3C116.3 470.7 145.7 465.3 174.8 469C204 472.7 233 485.3 262 491.7C291 498 320 498 349 498.8C378 499.7 407 501.3 436.2 494.2C465.3 487 494.7 471 523.8 464.7C553 458.3 582 461.7 611 464.3C640 467 669 469 698 470.8C727 472.7 756 474.3 785.2 476.2C814.3 478 843.7 480 872.8 477.3C902 474.7 931 467.3 945.5 463.7L960 460L960 323L945.5 326.7C931 330.3 902 337.7 872.8 331.3C843.7 325 814.3 305 785.2 279.7C756 254.3 727 223.7 698 217.3C669 211 640 229 611 246.2C582 263.3 553 279.7 523.8 309.5C494.7 339.3 465.3 382.7 436.2 391.7C407 400.7 378 375.3 349 372.5C320 369.7 291 389.3 262 378.5C233 367.7 204 326.3 174.8 310.2C145.7 294 116.3 303 87.2 320.2C58 337.3 29 362.7 14.5 375.3L0 388Z" fill="#55a650"></path><path d="M0 541L14.5 541C29 541 58 541 87.2 541C116.3 541 145.7 541 174.8 541C204 541 233 541 262 541C291 541 320 541 349 541C378 541 407 541 436.2 541C465.3 541 494.7 541 523.8 541C553 541 582 541 611 541C640 541 669 541 698 541C727 541 756 541 785.2 541C814.3 541 843.7 541 872.8 541C902 541 931 541 945.5 541L960 541L960 458L945.5 461.7C931 465.3 902 472.7 872.8 475.3C843.7 478 814.3 476 785.2 474.2C756 472.3 727 470.7 698 468.8C669 467 640 465 611 462.3C582 459.7 553 456.3 523.8 462.7C494.7 469 465.3 485 436.2 492.2C407 499.3 378 497.7 349 496.8C320 496 291 496 262 489.7C233 483.3 204 470.7 174.8 467C145.7 463.3 116.3 468.7 87.2 471.3C58 474 29 474 14.5 474L0 474Z" fill="#228c22"></path></svg>