<svg id="visual" viewBox="0 0 960 540" width="960" height="540" xmlns="http://www.w3.org/2000/svg" xmlns:xlink="http://www.w3.org/1999/xlink" version="1.1"><rect x="0" y="0" width="960" height="540" fill="#d2f6d2"></rect><path d="M0 459L32 452.3C64 445.7 128 432.3 192 434.5C256 436.7 320 454.3 384 462.3C448 470.3 512 468.7 576 458.3C640 448 704 429 768 426.5C832 424 896 438 928 445L960 452L960 541L928 541C896 541 832 541 768 541C704 541 640 541 576 541C512 541 448 541 384 541C320 541 256 541 192 541C128 541 64 541 32 541L0 541Z" fill="#2a912a" stroke-linecap="round" stroke-linejoin="miter"></path></svg>